<?xml version="1.0" encoding="utf-8" standalone="no"?>
<!-- Generated by Therion 6.1.2 (2022-07-11) -->
<!-- Author: Martin Kern -->
<!DOCTYPE svg PUBLIC "-//W3C//DTD SVG 1.1//EN" "http://www.w3.org/Graphics/SVG/1.1/DTD/svg11.dtd">
<svg width="14.691cm" height="20.030cm" viewBox="-277.930 -51.713 416.424 567.791" xmlns="http://www.w3.org/2000/svg" xmlns:xlink="http://www.w3.org/1999/xlink">
<defs>
<g id="F_aaaaaaa_Exports/G4_coupe.svg">
<g>
<clipPath id="clip_1_Exports/G4_coupe.svg">
  <path d="M88.470 215.130C76.900 216.100 49.550 219.670 44.390 208.100C15.660 143.640 36.420 142.470 59.010 144.820C66.240 145.580 57.590 128.790 33.020 122.330C11.170 116.590 18.750 89.550 18.180 86.670C17.610 83.790 11.260 71.690 3.190 68.810C-4.880 65.930 -34.830 48.650 -38.290 45.770C-41.740 42.890 -46.920 25.040 -46.920 21.000C-46.910 16.970 -51.530 -38.320 -53.260 -40.630C-53.260 -40.630 -53.260 -40.630 -53.260 -40.630C-53.260 -40.630 -56.150 -63.670 -57.310 -65.980C-58.460 -68.280 -61.350 -84.420 -61.350 -84.420C-55.013 -84.803 -48.677 -85.187 -42.340 -85.570C-40.040 -83.260 -26.180 -40.050 -26.180 -40.050C-26.180 -40.050 -26.180 -40.050 -26.180 -40.050C-25.590 -33.130 -22.880 -6.700 -14.640 -6.630C50.410 -6.070 34.950 -10.100 36.040 35.410C36.960 73.760 32.870 68.240 57.920 69.100C57.920 69.100 57.920 69.100 57.920 69.100C64.820 69.100 65.300 114.240 68.140 137.300C69.640 149.460 87.200 155.020 91.350 157.530C90.390 176.730 89.430 195.930 88.470 215.130" />
</clipPath>
<g clip-path="url(#clip_1_Exports/G4_coupe.svg)">
<path fill="none" stroke="#935602" stroke-width="0.700" d="M25.970 83.800C26.830 77.170 30.870 76.020 33.460 85.810" />
<path fill="none" stroke="#935602" stroke-width="0.700" d="M29.140 78.330C29.140 78.330 30.860 21.010 4.360 48.080" />
<path fill="none" stroke="#935602" stroke-width="0.700" d="M0.900 52.690C0.900 52.690 4.370 42.330 9.540 53.270" />
<path fill="none" stroke="#935602" stroke-width="0.700" d="M4.360 48.080C4.360 48.080 3.780 2.580 2.630 0.850" />
<path fill="none" stroke="#000000" stroke-width="0.500" d="M42.360 45.200C42.360 45.200 35.990 32.040 27.990 33.110C10.710 35.420 6.100 29.650 7.250 20.440" />
<path fill="none" stroke="#935602" stroke-width="0.700" d="M60.150 155.480C60.150 155.480 63.630 142.810 68.750 156.900" />
<path fill="none" stroke="#935602" stroke-width="0.700" d="M64.560 150.040C64.560 150.040 55.630 87.540 53.040 84.660C50.590 81.940 44.100 75.440 29.140 78.330" />
<path fill="none" stroke="#935602" stroke-width="0.700" d="M64.560 150.040C64.560 150.040 75.680 158.130 91.210 161.990" />
</g>
</g>
</g>
<g id="G_aaaaaaa_Exports/G4_coupe.svg">
</g>
<g id="B_aaaaaaa_Exports/G4_coupe.svg">
<path fill="none" stroke="inherit" stroke-width="0.350" d="M150.470 301.130C138.900 302.100 111.550 305.670 106.390 294.100C77.660 229.640 98.420 228.470 121.010 230.820C128.240 231.580 119.590 214.790 95.020 208.330C73.170 202.590 80.750 175.550 80.180 172.670C79.610 169.790 73.260 157.690 65.190 154.810C57.120 151.930 27.170 134.650 23.710 131.770C20.260 128.890 15.080 111.040 15.080 107.000C15.090 102.970 10.470 47.680 8.740 45.370" />
<path fill="none" stroke="inherit" stroke-width="0.350" d="M8.740 45.370C8.740 45.370 5.850 22.330 4.690 20.020C3.540 17.720 0.650 1.580 0.650 1.580" />
<path fill="none" stroke="inherit" stroke-width="0.350" d="M19.660 0.430C21.960 2.740 35.820 45.950 35.820 45.950" />
<path fill="none" stroke="inherit" stroke-width="0.350" d="M35.820 45.950C36.410 52.870 39.120 79.300 47.360 79.370C112.410 79.930 96.950 75.900 98.040 121.410C98.960 159.760 94.870 154.240 119.920 155.100" />
<path fill="none" stroke="inherit" stroke-width="0.350" d="M119.920 155.100C126.820 155.100 127.300 200.240 130.140 223.300C131.640 235.460 149.200 241.020 153.350 243.530" />
</g>
<g id="I_aaaaaaa_Exports/G4_coupe.svg">
<path fill="inherit" stroke="none" d="M150.470 301.130C138.900 302.100 111.550 305.670 106.390 294.100C77.660 229.640 98.420 228.470 121.010 230.820C128.240 231.580 119.590 214.790 95.020 208.330C73.170 202.590 80.750 175.550 80.180 172.670C79.610 169.790 73.260 157.690 65.190 154.810C57.120 151.930 27.170 134.650 23.710 131.770C20.260 128.890 15.080 111.040 15.080 107.000C15.090 102.970 10.470 47.680 8.740 45.370C8.740 45.370 8.740 45.370 8.740 45.370C8.740 45.370 5.850 22.330 4.690 20.020C3.540 17.720 0.650 1.580 0.650 1.580C6.987 1.197 13.323 0.813 19.660 0.430C21.960 2.740 35.820 45.950 35.820 45.950C35.820 45.950 35.820 45.950 35.820 45.950C36.410 52.870 39.120 79.300 47.360 79.370C112.410 79.930 96.950 75.900 98.040 121.410C98.960 159.760 94.870 154.240 119.920 155.100C119.920 155.100 119.920 155.100 119.920 155.100C126.820 155.100 127.300 200.240 130.140 223.300C131.640 235.460 149.200 241.020 153.350 243.530C152.390 262.730 151.430 281.930 150.470 301.130Z" />
</g>
<g id="E_aaaaaaa_Exports/G4_coupe.svg">
<path fill="none" stroke="#000000" stroke-width="1.000" d="M150.470 301.130C138.900 302.100 111.550 305.670 106.390 294.100C77.660 229.640 98.420 228.470 121.010 230.820C128.240 231.580 119.590 214.790 95.020 208.330C73.170 202.590 80.750 175.550 80.180 172.670C79.610 169.790 73.260 157.690 65.190 154.810C57.120 151.930 27.170 134.650 23.710 131.770C20.260 128.890 15.080 111.040 15.080 107.000C15.090 102.970 10.470 47.680 8.740 45.370" />
<path fill="#000000" stroke="none" d="M122.084 243.479C121.554 243.461 121.052 243.234 120.690 242.846C120.327 242.459 120.134 241.944 120.151 241.414C120.169 240.884 120.396 240.382 120.784 240.020C121.171 239.657 121.686 239.464 122.216 239.481C122.746 239.499 123.248 239.726 123.610 240.113C123.973 240.501 124.166 241.016 124.149 241.546C124.131 242.076 123.904 242.578 123.517 242.940C123.129 243.303 122.614 243.496 122.084 243.479Z" />
<path fill="#000000" stroke="none" d="M130.684 244.899C130.154 244.881 129.652 244.654 129.290 244.267C128.927 243.879 128.734 243.364 128.751 242.834C128.769 242.304 128.996 241.802 129.383 241.440C129.771 241.077 130.286 240.884 130.816 240.901C131.346 240.919 131.848 241.146 132.210 241.534C132.573 241.921 132.766 242.436 132.749 242.966C132.731 243.496 132.504 243.998 132.117 244.360C131.729 244.723 131.214 244.916 130.684 244.899Z" />
<path fill="#000000" stroke="none" d="M64.900 138.690C64.900 139.220 64.689 139.729 64.314 140.104C63.939 140.479 63.430 140.690 62.900 140.690C62.370 140.690 61.861 140.479 61.486 140.104C61.111 139.729 60.900 139.220 60.900 138.690C60.900 138.160 61.111 137.651 61.486 137.276C61.861 136.901 62.370 136.690 62.900 136.690C63.430 136.690 63.939 136.901 64.314 137.276C64.689 137.651 64.900 138.160 64.900 138.690Z" />
<path fill="#000000" stroke="none" d="M73.540 139.270C73.540 139.800 73.329 140.309 72.954 140.684C72.579 141.059 72.070 141.270 71.540 141.270C71.010 141.270 70.501 141.059 70.126 140.684C69.751 140.309 69.540 139.800 69.540 139.270C69.540 138.740 69.751 138.231 70.126 137.856C70.501 137.481 71.010 137.270 71.540 137.270C72.070 137.270 72.579 137.481 72.954 137.856C73.329 138.231 73.540 138.740 73.540 139.270Z" />
<path fill="#000000" stroke="none" d="M87.904 171.799C87.374 171.781 86.872 171.554 86.510 171.166C86.147 170.779 85.954 170.264 85.971 169.734C85.989 169.204 86.216 168.702 86.603 168.340C86.991 167.977 87.506 167.784 88.036 167.801C88.566 167.819 89.068 168.046 89.430 168.434C89.793 168.821 89.986 169.336 89.969 169.866C89.951 170.396 89.724 170.898 89.337 171.260C88.949 171.623 88.434 171.816 87.904 171.799Z" />
<path fill="#000000" stroke="none" d="M95.394 173.809C94.864 173.791 94.362 173.564 94.000 173.177C93.637 172.789 93.444 172.274 93.461 171.744C93.479 171.214 93.706 170.712 94.094 170.350C94.481 169.987 94.996 169.794 95.526 169.811C96.056 169.829 96.558 170.056 96.920 170.444C97.283 170.831 97.476 171.346 97.459 171.876C97.441 172.406 97.214 172.908 96.826 173.270C96.439 173.633 95.924 173.826 95.394 173.809Z" />
<path fill="none" stroke="#000000" stroke-width="0.500" stroke-dasharray="1.500,1.500" stroke-dashoffset="0.000" d="M8.740 45.370C8.740 45.370 5.850 22.330 4.690 20.020C3.540 17.720 0.650 1.580 0.650 1.580" />
<path fill="none" stroke="#000000" stroke-width="1.000" d="M35.820 45.950C36.410 52.870 39.120 79.300 47.360 79.370C112.410 79.930 96.950 75.900 98.040 121.410C98.960 159.760 94.870 154.240 119.920 155.100" />
<path fill="none" stroke="#000000" stroke-width="0.500" d="M121.374 158.444C121.380 157.502 120.097 155.697 119.214 154.383C120.501 154.548 122.207 155.448 123.496 155.379C123.292 156.263 122.201 157.259 121.374 158.444Z" />
<path fill="none" stroke="#000000" stroke-width="0.500" d="M122.376 157.186C123.070 158.467 124.874 159.384 125.604 160.962C124.185 161.414 122.423 161.012 121.638 161.765C121.494 159.751 122.262 158.754 122.376 157.186Z" />
<path fill="none" stroke="#000000" stroke-width="0.500" d="M122.924 161.956C124.116 162.482 125.207 163.026 126.436 163.659C125.700 164.798 124.243 165.260 123.715 166.210C123.201 164.572 123.227 163.551 122.924 161.956Z" />
<path fill="none" stroke="#000000" stroke-width="0.500" d="M127.924 168.286C126.396 168.126 124.896 168.778 123.919 169.794C123.864 168.025 123.501 166.729 124.000 166.051C125.692 166.075 126.164 167.135 127.924 168.286Z" />
<path fill="none" stroke="#000000" stroke-width="0.500" d="M126.542 169.786C127.207 171.343 126.178 172.352 126.150 174.224C125.290 173.493 124.686 172.928 123.425 172.015C124.179 171.133 125.355 170.601 126.542 169.786Z" />
<path fill="none" stroke="#000000" stroke-width="0.500" d="M128.191 174.121C127.592 175.120 126.953 176.806 126.538 178.703C125.651 177.820 124.725 176.558 124.022 175.499C124.843 174.529 126.807 174.730 128.191 174.121Z" />
<path fill="none" stroke="#000000" stroke-width="0.500" d="M126.362 177.879C126.757 178.856 128.006 179.637 128.752 181.204C126.802 181.152 125.418 180.978 124.724 180.889C125.408 179.577 125.315 178.634 126.362 177.879Z" />
<path fill="none" stroke="#000000" stroke-width="0.500" d="M124.819 183.245C126.024 182.516 127.912 182.689 129.142 183.036C128.598 184.050 127.237 185.081 126.922 186.625C125.670 185.651 125.157 183.797 124.819 183.245Z" />
<path fill="none" stroke="#000000" stroke-width="0.500" d="M125.137 186.429C126.408 186.750 127.821 186.967 129.690 186.780C129.082 188.436 127.674 188.850 127.612 190.015C126.561 189.472 125.258 187.692 125.137 186.429Z" />
<path fill="none" stroke="#000000" stroke-width="0.500" d="M126.576 194.036C125.992 193.231 126.500 191.803 126.236 189.985C127.740 190.990 128.427 192.053 130.000 192.731C128.430 192.730 127.038 193.826 126.576 194.036Z" />
<path fill="none" stroke="#000000" stroke-width="0.500" d="M128.751 198.195C128.218 197.562 126.699 196.989 125.352 195.965C126.102 195.930 127.494 194.890 128.655 193.815C128.555 195.821 129.211 196.956 128.751 198.195Z" />
<path fill="none" stroke="#000000" stroke-width="0.500" d="M127.661 197.530C128.001 198.798 129.441 200.024 130.323 200.766C129.161 200.940 127.891 201.153 126.811 202.004C126.555 200.732 127.345 198.947 127.661 197.530Z" />
<path fill="none" stroke="#000000" stroke-width="0.500" d="M131.107 204.157C129.935 205.212 128.903 206.053 127.740 206.670C127.211 205.707 126.792 203.943 127.331 203.001C127.749 203.164 129.683 202.935 131.107 204.157Z" />
<path fill="none" stroke="#000000" stroke-width="0.500" d="M129.646 210.796C128.797 210.062 127.671 209.260 126.459 207.669C127.921 207.862 128.982 207.458 130.612 206.846C129.530 208.111 129.614 209.584 129.646 210.796Z" />
<path fill="none" stroke="#000000" stroke-width="0.500" d="M131.051 211.454C130.508 213.066 129.293 214.359 128.784 214.817C128.361 213.272 128.116 212.506 127.640 210.699C128.339 211.493 129.933 211.352 131.051 211.454Z" />
<path fill="none" stroke="#000000" stroke-width="0.500" d="M129.703 214.177C130.647 215.799 130.687 216.771 131.080 218.484C130.156 217.591 128.953 217.231 127.910 217.807C128.246 216.501 128.940 215.005 129.703 214.177Z" />
<path fill="none" stroke="#000000" stroke-width="0.500" d="M128.163 218.842C129.906 219.142 131.195 220.374 132.224 220.803C131.394 221.941 130.012 222.512 128.422 222.952C128.472 221.049 128.737 219.735 128.163 218.842Z" />
<path fill="none" stroke="#000000" stroke-width="0.500" d="M131.989 222.768C131.828 223.913 131.109 225.689 131.275 227.389C130.058 225.887 129.228 224.956 128.419 224.821C129.493 223.789 130.283 223.544 131.989 222.768Z" />
<path fill="none" stroke="#000000" stroke-width="0.500" d="M129.929 229.739C130.263 228.662 131.484 226.628 132.323 226.616C133.145 227.113 132.939 228.579 133.018 230.141C131.863 229.620 131.008 230.256 129.929 229.739Z" />
<path fill="none" stroke="#000000" stroke-width="0.500" d="M133.532 229.835C134.564 230.373 135.694 231.529 136.592 232.472C135.533 232.586 133.963 232.595 132.717 233.007C133.215 231.834 133.020 230.539 133.532 229.835Z" />
<path fill="none" stroke="#000000" stroke-width="0.500" d="M135.218 233.991C136.601 233.555 138.132 233.830 139.021 233.255C138.453 233.975 138.134 235.764 137.880 236.489C137.289 236.227 136.168 235.082 135.218 233.991Z" />
<path fill="none" stroke="#000000" stroke-width="0.500" d="M143.028 238.398C140.775 237.725 140.076 237.951 138.199 237.061C139.269 237.002 140.350 235.267 141.621 234.614C141.709 235.960 142.411 237.430 143.028 238.398Z" />
<path fill="none" stroke="#000000" stroke-width="0.500" d="M145.478 236.465C144.848 237.889 145.488 239.753 145.244 240.835C143.748 240.582 142.940 240.168 141.620 239.175C142.739 238.013 144.164 237.290 145.478 236.465Z" />
<path fill="none" stroke="#000000" stroke-width="0.500" d="M150.502 240.573C149.056 241.739 148.115 242.361 147.083 242.870C146.537 241.343 147.087 240.232 146.492 239.098C148.034 239.523 148.736 239.944 150.502 240.573Z" />
<path fill="none" stroke="#000000" stroke-width="0.500" d="M153.099 241.297C152.986 242.939 152.362 243.658 151.281 244.478C150.443 244.026 150.535 242.787 149.412 241.791C151.298 241.222 151.918 241.428 153.099 241.297Z" />
<path fill="none" stroke="#000000" stroke-width="0.500" stroke-dasharray="1.500,1.500" stroke-dashoffset="0.000" d="M19.660 0.430C21.960 2.740 35.820 45.950 35.820 45.950" />
</g>
<g id="X_aaaaaaa_Exports/G4_coupe.svg">
<text font-family="cmss10" font-size="7.970" fill="#000000" stroke="none" transform="matrix(1.000 0.000 -0.000 -1.000 84.641 238.823)">&#x50;&#x38;</text>
<text font-family="cmss10" font-size="7.970" fill="#000000" stroke="none" transform="matrix(1.000 0.000 -0.000 -1.000 5.284 135.203)">&#x52;&#x34;</text>
<text font-family="cmss10" font-size="7.970" fill="#000000" stroke="none" transform="matrix(1.000 0.000 -0.000 -1.000 44.434 181.283)">&#x52;&#x35;</text>
<text font-family="cmss10" font-size="7.970" fill="#000000" stroke="none" transform="matrix(1.000 0.000 -0.000 -1.000 0.236 2.398)">&#x69;&#x6d;&#x70;&#x2e;</text>
<path fill="none" stroke="#c60071" stroke-width="0.350" d="M39.820 61.950L42.311 61.740" />
<text font-family="cmss10" font-size="5.978" fill="#c60071" stroke="none" transform="matrix(1.000 0.000 -0.000 -1.000 43.145 59.781)">&#x2d;&#x34;&#x32;</text>
</g>
<g id="F_aaaaaab_Exports/G4_coupe.svg">
<g>
<clipPath id="clip_2_Exports/G4_coupe.svg">
  <path d="M75.510 235.320C75.510 235.320 74.830 215.890 51.900 205.950C0.100 183.500 5.850 181.190 2.400 164.490C-1.050 147.790 18.500 148.350 25.400 147.770C32.300 147.190 28.870 135.680 28.300 132.220C27.730 128.770 24.240 96.510 23.100 90.750C18.750 68.720 26.320 52.630 -2.260 55.030C-1.300 35.830 -0.340 16.630 0.620 -2.570C11.140 3.780 25.090 2.150 53.390 5.050C53.390 5.050 53.390 5.050 53.390 5.050C81.570 7.920 77.710 -1.850 43.260 133.370C43.260 133.370 43.260 133.370 43.260 133.370C40.000 146.230 64.550 135.660 78.390 135.960C78.390 135.960 78.390 135.960 78.390 135.960C104.910 136.550 84.420 160.470 89.320 214.580C89.900 220.920 106.030 233.590 106.030 233.590C95.857 234.167 85.683 234.743 75.510 235.320" />
</clipPath>
<g clip-path="url(#clip_2_Exports/G4_coupe.svg)">
<path fill="none" stroke="#935602" stroke-width="0.700" d="M38.110 10.810C38.110 10.810 1.920 2.250 0.480 1.890" />
<path fill="none" stroke="#000000" stroke-width="0.500" d="M34.270 0.340L42.270 1.340L37.570 7.340Z" />
<path fill="none" stroke="#000000" stroke-width="0.500" d="M41.770 2.840L44.270 3.840L42.270 10.340L38.270 10.340Z" />
<path fill="none" stroke="#000000" stroke-width="0.500" d="M36.570 5.340L38.270 8.340L34.270 8.840Z" />
<path fill="none" stroke="#000000" stroke-width="0.350" d="M34.270 0.340L38.270 3.340L37.570 7.340" />
<path fill="none" stroke="#000000" stroke-width="0.350" d="M38.270 3.340L42.270 1.340" />
<path fill="none" stroke="#000000" stroke-width="0.350" d="M41.770 2.840L42.270 5.340L41.270 7.340L38.270 10.340" />
<path fill="none" stroke="#000000" stroke-width="0.350" d="M42.270 10.340L41.270 7.340" />
<path fill="none" stroke="#000000" stroke-width="0.350" d="M44.270 3.840L42.270 5.340" />
<path fill="none" stroke="#000000" stroke-width="0.500" d="M54.390 0.590L65.670 2.000L59.043 10.460Z" />
<path fill="none" stroke="#000000" stroke-width="0.500" d="M64.965 4.115L68.490 5.525L65.670 14.690L60.030 14.690Z" />
<path fill="none" stroke="#000000" stroke-width="0.500" d="M57.633 7.640L60.030 11.870L54.390 12.575Z" />
<path fill="none" stroke="#000000" stroke-width="0.350" d="M54.390 0.590L60.030 4.820L59.043 10.460" />
<path fill="none" stroke="#000000" stroke-width="0.350" d="M60.030 4.820L65.670 2.000" />
<path fill="none" stroke="#000000" stroke-width="0.350" d="M64.965 4.115L65.670 7.640L64.260 10.460L60.030 14.690" />
<path fill="none" stroke="#000000" stroke-width="0.350" d="M65.670 14.690L64.260 10.460" />
<path fill="none" stroke="#000000" stroke-width="0.350" d="M68.490 5.525L65.670 7.640" />
<path fill="none" stroke="#935602" stroke-width="0.700" d="M32.590 148.340C32.590 148.340 41.280 12.250 38.110 10.810" />
<path fill="none" stroke="#000000" stroke-width="0.500" d="M67.440 217.180L78.864 213.524" />
<path fill="none" stroke="#000000" stroke-width="0.500" d="M83.470 212.850C83.470 213.182 83.207 213.499 82.738 213.734C82.269 213.968 81.633 214.100 80.970 214.100C80.307 214.100 79.671 213.968 79.202 213.734C78.733 213.499 78.470 213.182 78.470 212.850C78.470 212.518 78.733 212.201 79.202 211.966C79.671 211.732 80.307 211.600 80.970 211.600C81.633 211.600 82.269 211.732 82.738 211.966C83.207 212.201 83.470 212.518 83.470 212.850Z" />
<path fill="none" stroke="#935602" stroke-width="0.700" d="M29.140 152.380C29.140 152.380 32.590 144.310 34.320 152.090" />
</g>
</g>
</g>
<g id="G_aaaaaab_Exports/G4_coupe.svg">
</g>
<g id="B_aaaaaab_Exports/G4_coupe.svg">
<path fill="none" stroke="inherit" stroke-width="0.350" d="M78.510 238.320C78.510 238.320 77.830 218.890 54.900 208.950C3.100 186.500 8.850 184.190 5.400 167.490C1.950 150.790 21.500 151.350 28.400 150.770C35.300 150.190 31.870 138.680 31.300 135.220C30.730 131.770 27.240 99.510 26.100 93.750C21.750 71.720 29.320 55.630 0.740 58.030" />
<path fill="none" stroke="inherit" stroke-width="0.350" d="M3.620 0.430C14.140 6.780 28.090 5.150 56.390 8.050" />
<path fill="none" stroke="inherit" stroke-width="0.350" d="M56.390 8.050C84.570 10.920 80.710 1.150 46.260 136.370" />
<path fill="none" stroke="inherit" stroke-width="0.350" d="M46.260 136.370C43.000 149.230 67.550 138.660 81.390 138.960" />
<path fill="none" stroke="inherit" stroke-width="0.350" d="M81.390 138.960C107.910 139.550 87.420 163.470 92.320 217.580C92.900 223.920 109.030 236.590 109.030 236.590" />
</g>
<g id="I_aaaaaab_Exports/G4_coupe.svg">
<path fill="inherit" stroke="none" d="M78.510 238.320C78.510 238.320 77.830 218.890 54.900 208.950C3.100 186.500 8.850 184.190 5.400 167.490C1.950 150.790 21.500 151.350 28.400 150.770C35.300 150.190 31.870 138.680 31.300 135.220C30.730 131.770 27.240 99.510 26.100 93.750C21.750 71.720 29.320 55.630 0.740 58.030C1.700 38.830 2.660 19.630 3.620 0.430C14.140 6.780 28.090 5.150 56.390 8.050C56.390 8.050 56.390 8.050 56.390 8.050C84.570 10.920 80.710 1.150 46.260 136.370C46.260 136.370 46.260 136.370 46.260 136.370C43.000 149.230 67.550 138.660 81.390 138.960C81.390 138.960 81.390 138.960 81.390 138.960C107.910 139.550 87.420 163.470 92.320 217.580C92.900 223.920 109.030 236.590 109.030 236.590C98.857 237.167 88.683 237.743 78.510 238.320Z" />
</g>
<g id="E_aaaaaab_Exports/G4_coupe.svg">
<path fill="none" stroke="#000000" stroke-width="0.700" d="M1.608 245.849h0.001" />
<path fill="none" stroke="#000000" stroke-width="0.700" d="M2.634 245.694h0.001" />
<path fill="none" stroke="#000000" stroke-width="0.700" d="M3.976 243.976h0.001" />
<path fill="none" stroke="#000000" stroke-width="0.700" d="M4.822 244.336h0.001" />
<path fill="none" stroke="#000000" stroke-width="0.700" d="M5.468 246.285h0.001" />
<path fill="none" stroke="#000000" stroke-width="0.700" d="M6.784 243.861h0.001" />
<path fill="none" stroke="#000000" stroke-width="0.700" d="M7.548 245.509h0.001" />
<path fill="none" stroke="#000000" stroke-width="0.700" d="M8.552 245.319h0.001" />
<path fill="none" stroke="#000000" stroke-width="0.700" d="M9.513 245.585h0.001" />
<path fill="none" stroke="#000000" stroke-width="0.700" d="M10.408 246.706h0.001" />
<path fill="none" stroke="#000000" stroke-width="0.700" d="M11.393 246.884h0.001" />
<path fill="none" stroke="#000000" stroke-width="0.700" d="M12.449 246.089h0.001" />
<path fill="none" stroke="#000000" stroke-width="0.700" d="M13.536 244.593h0.001" />
<path fill="none" stroke="#000000" stroke-width="0.700" d="M14.481 245.359h0.001" />
<path fill="none" stroke="#000000" stroke-width="0.700" d="M15.364 247.521h0.001" />
<path fill="none" stroke="#000000" stroke-width="0.700" d="M16.407 246.664h0.001" />
<path fill="none" stroke="#000000" stroke-width="0.700" d="M17.414 246.454h0.001" />
<path fill="none" stroke="#000000" stroke-width="0.700" d="M18.446 245.545h0.001" />
<path fill="none" stroke="#000000" stroke-width="0.700" d="M19.357 248.161h0.001" />
<path fill="none" stroke="#000000" stroke-width="0.700" d="M20.356 248.404h0.001" />
<path fill="none" stroke="#000000" stroke-width="0.700" d="M21.385 247.493h0.001" />
<path fill="none" stroke="#000000" stroke-width="0.700" d="M22.431 245.447h0.001" />
<path fill="none" stroke="#000000" stroke-width="0.700" d="M23.400 246.968h0.001" />
<path fill="none" stroke="#000000" stroke-width="0.700" d="M24.385 248.194h0.001" />
<path fill="none" stroke="#000000" stroke-width="0.700" d="M25.426 244.794h0.001" />
<path fill="none" stroke="#000000" stroke-width="0.700" d="M26.416 245.670h0.001" />
<path fill="none" stroke="#000000" stroke-width="0.700" d="M27.411 245.922h0.001" />
<path fill="none" stroke="#000000" stroke-width="0.700" d="M28.409 246.461h0.001" />
<path fill="none" stroke="#000000" stroke-width="0.700" d="M29.410 245.467h0.001" />
<path fill="none" stroke="#000000" stroke-width="0.700" d="M30.410 246.493h0.001" />
<path fill="none" stroke="#000000" stroke-width="0.700" d="M31.424 248.328h0.001" />
<path fill="none" stroke="#000000" stroke-width="0.700" d="M32.424 247.640h0.001" />
<path fill="none" stroke="#000000" stroke-width="0.700" d="M33.420 247.027h0.001" />
<path fill="none" stroke="#000000" stroke-width="0.700" d="M34.429 247.522h0.001" />
<path fill="none" stroke="#000000" stroke-width="0.700" d="M35.419 246.659h0.001" />
<path fill="none" stroke="#000000" stroke-width="0.700" d="M36.431 247.209h0.001" />
<path fill="none" stroke="#000000" stroke-width="0.700" d="M37.430 246.992h0.001" />
<path fill="none" stroke="#000000" stroke-width="0.700" d="M38.455 247.882h0.001" />
<path fill="none" stroke="#000000" stroke-width="0.700" d="M39.474 248.358h0.001" />
<path fill="none" stroke="#000000" stroke-width="0.700" d="M40.464 247.789h0.001" />
<path fill="none" stroke="#000000" stroke-width="0.700" d="M41.393 245.387h0.001" />
<path fill="none" stroke="#000000" stroke-width="0.700" d="M42.413 245.994h0.001" />
<path fill="none" stroke="#000000" stroke-width="0.700" d="M43.466 247.384h0.001" />
<path fill="none" stroke="#000000" stroke-width="0.700" d="M44.400 245.590h0.001" />
<path fill="none" stroke="#000000" stroke-width="0.700" d="M45.359 244.644h0.001" />
<path fill="none" stroke="#000000" stroke-width="0.700" d="M46.413 245.873h0.001" />
<path fill="none" stroke="#000000" stroke-width="0.700" d="M47.376 245.065h0.001" />
<path fill="none" stroke="#000000" stroke-width="0.700" d="M48.342 244.379h0.001" />
<path fill="none" stroke="#000000" stroke-width="0.700" d="M49.453 246.532h0.001" />
<path fill="none" stroke="#000000" stroke-width="0.700" d="M50.493 247.181h0.001" />
<path fill="none" stroke="#000000" stroke-width="0.700" d="M51.343 244.495h0.001" />
<path fill="none" stroke="#000000" stroke-width="0.700" d="M52.514 247.334h0.001" />
<path fill="none" stroke="#000000" stroke-width="0.700" d="M53.460 246.370h0.001" />
<path fill="none" stroke="#000000" stroke-width="0.700" d="M54.392 245.281h0.001" />
<path fill="none" stroke="#000000" stroke-width="0.700" d="M55.377 245.035h0.001" />
<path fill="none" stroke="#000000" stroke-width="0.700" d="M56.330 244.390h0.001" />
<path fill="none" stroke="#000000" stroke-width="0.700" d="M57.555 247.360h0.001" />
<path fill="none" stroke="#000000" stroke-width="0.700" d="M58.518 246.775h0.001" />
<path fill="none" stroke="#000000" stroke-width="0.700" d="M59.452 245.899h0.001" />
<path fill="none" stroke="#000000" stroke-width="0.700" d="M60.506 246.466h0.001" />
<path fill="none" stroke="#000000" stroke-width="0.700" d="M61.569 247.071h0.001" />
<path fill="none" stroke="#000000" stroke-width="0.700" d="M62.298 244.092h0.001" />
<path fill="none" stroke="#000000" stroke-width="0.700" d="M63.408 245.211h0.001" />
<path fill="none" stroke="#000000" stroke-width="0.700" d="M64.425 245.334h0.001" />
<path fill="none" stroke="#000000" stroke-width="0.700" d="M65.260 243.730h0.001" />
<path fill="none" stroke="#000000" stroke-width="0.700" d="M66.367 244.718h0.001" />
<path fill="none" stroke="#000000" stroke-width="0.700" d="M67.400 244.958h0.001" />
<path fill="none" stroke="#000000" stroke-width="0.700" d="M68.393 244.865h0.001" />
<path fill="none" stroke="#000000" stroke-width="0.700" d="M69.549 246.049h0.001" />
<path fill="none" stroke="#000000" stroke-width="0.700" d="M70.192 243.237h0.001" />
<path fill="none" stroke="#000000" stroke-width="0.700" d="M71.143 242.896h0.001" />
<path fill="none" stroke="#000000" stroke-width="0.700" d="M72.567 245.867h0.001" />
<path fill="none" stroke="#000000" stroke-width="0.700" d="M73.337 244.234h0.001" />
<path fill="none" stroke="#000000" stroke-width="0.700" d="M74.363 244.352h0.001" />
<path fill="none" stroke="#000000" stroke-width="0.700" d="M75.410 244.579h0.001" />
<path fill="none" stroke="#000000" stroke-width="0.700" d="M76.510 245.064h0.001" />
<path fill="none" stroke="#000000" stroke-width="0.700" d="M77.270 243.662h0.001" />
<path fill="none" stroke="#000000" stroke-width="0.700" d="M78.504 244.794h0.001" />
<path fill="none" stroke="#000000" stroke-width="0.700" d="M78.990 242.227h0.001" />
<path fill="none" stroke="#000000" stroke-width="0.700" d="M80.250 243.401h0.001" />
<path fill="none" stroke="#000000" stroke-width="0.700" d="M81.305 243.559h0.001" />
<path fill="none" stroke="#000000" stroke-width="0.700" d="M81.880 241.833h0.001" />
<path fill="none" stroke="#000000" stroke-width="0.700" d="M83.062 242.490h0.001" />
<path fill="none" stroke="#000000" stroke-width="0.700" d="M84.330 243.284h0.001" />
<path fill="none" stroke="#000000" stroke-width="0.700" d="M84.178 239.834h0.001" />
<path fill="none" stroke="#000000" stroke-width="0.700" d="M85.127 239.901h0.001" />
<path fill="none" stroke="#000000" stroke-width="0.700" d="M86.923 241.768h0.001" />
<path fill="none" stroke="#000000" stroke-width="0.700" d="M87.710 241.221h0.001" />
<path fill="none" stroke="#000000" stroke-width="0.700" d="M87.484 239.505h0.001" />
<path fill="none" stroke="#000000" stroke-width="0.700" d="M86.814 238.573h0.001" />
<path fill="none" stroke="#000000" stroke-width="0.700" d="M89.182 239.291h0.001" />
<path fill="none" stroke="#000000" stroke-width="1.000" d="M1.440 246.260C10.080 250.860 91.120 248.980 89.510 239.320" />
<path fill="none" stroke="#000000" stroke-width="0.700" d="M121.469 236.311h0.001" />
<path fill="none" stroke="#000000" stroke-width="0.700" d="M121.676 235.767h0.001" />
<path fill="none" stroke="#000000" stroke-width="0.700" d="M122.144 236.758h0.001" />
<path fill="none" stroke="#000000" stroke-width="0.700" d="M123.123 236.226h0.001" />
<path fill="none" stroke="#000000" stroke-width="0.700" d="M123.972 236.938h0.001" />
<path fill="none" stroke="#000000" stroke-width="0.700" d="M124.889 237.575h0.001" />
<path fill="none" stroke="#000000" stroke-width="0.700" d="M125.974 235.951h0.001" />
<path fill="none" stroke="#000000" stroke-width="0.700" d="M126.954 235.818h0.001" />
<path fill="none" stroke="#000000" stroke-width="0.700" d="M127.836 238.251h0.001" />
<path fill="none" stroke="#000000" stroke-width="0.700" d="M128.865 237.455h0.001" />
<path fill="none" stroke="#000000" stroke-width="0.700" d="M129.860 237.636h0.001" />
<path fill="none" stroke="#000000" stroke-width="0.700" d="M130.873 237.284h0.001" />
<path fill="none" stroke="#000000" stroke-width="0.700" d="M131.899 236.470h0.001" />
<path fill="none" stroke="#000000" stroke-width="0.700" d="M132.855 238.350h0.001" />
<path fill="none" stroke="#000000" stroke-width="0.700" d="M133.842 239.129h0.001" />
<path fill="none" stroke="#000000" stroke-width="0.700" d="M134.867 238.461h0.001" />
<path fill="none" stroke="#000000" stroke-width="0.700" d="M135.929 236.693h0.001" />
<path fill="none" stroke="#000000" stroke-width="0.700" d="M136.877 238.703h0.001" />
<path fill="none" stroke="#000000" stroke-width="0.700" d="M137.933 237.444h0.001" />
<path fill="none" stroke="#000000" stroke-width="0.700" d="M139.001 236.143h0.001" />
<path fill="none" stroke="#000000" stroke-width="0.700" d="M139.893 239.016h0.001" />
<path fill="none" stroke="#000000" stroke-width="0.700" d="M140.984 237.446h0.001" />
<path fill="none" stroke="#000000" stroke-width="0.700" d="M141.936 238.648h0.001" />
<path fill="none" stroke="#000000" stroke-width="0.700" d="M143.038 237.324h0.001" />
<path fill="none" stroke="#000000" stroke-width="0.700" d="M144.136 236.370h0.001" />
<path fill="none" stroke="#000000" stroke-width="0.700" d="M145.129 236.951h0.001" />
<path fill="none" stroke="#000000" stroke-width="0.700" d="M145.957 239.212h0.001" />
<path fill="none" stroke="#000000" stroke-width="0.700" d="M147.034 238.663h0.001" />
<path fill="none" stroke="#000000" stroke-width="0.700" d="M148.115 238.234h0.001" />
<path fill="none" stroke="#000000" stroke-width="0.700" d="M148.965 239.677h0.001" />
<path fill="none" stroke="#000000" stroke-width="0.700" d="M150.232 238.089h0.001" />
<path fill="none" stroke="#000000" stroke-width="0.700" d="M151.550 236.609h0.001" />
<path fill="none" stroke="#000000" stroke-width="0.700" d="M152.047 239.794h0.001" />
<path fill="none" stroke="#000000" stroke-width="0.700" d="M153.545 237.774h0.001" />
<path fill="none" stroke="#000000" stroke-width="0.700" d="M154.438 238.737h0.001" />
<path fill="none" stroke="#000000" stroke-width="0.700" d="M155.201 240.037h0.001" />
<path fill="none" stroke="#000000" stroke-width="0.700" d="M156.512 239.480h0.001" />
<path fill="none" stroke="#000000" stroke-width="0.700" d="M156.713 242.061h0.001" />
<path fill="none" stroke="#000000" stroke-width="0.700" d="M158.750 239.247h0.001" />
<path fill="none" stroke="#000000" stroke-width="0.700" d="M159.624 239.127h0.001" />
<path fill="none" stroke="#000000" stroke-width="0.700" d="M160.213 240.223h0.001" />
<path fill="none" stroke="#000000" stroke-width="0.700" d="M160.892 241.401h0.001" />
<path fill="none" stroke="#000000" stroke-width="0.700" d="M161.643 242.678h0.001" />
<path fill="none" stroke="#000000" stroke-width="0.700" d="M162.516 243.587h0.001" />
<path fill="none" stroke="#000000" stroke-width="0.700" d="M163.900 239.953h0.001" />
<path fill="none" stroke="#000000" stroke-width="0.700" d="M164.729 241.154h0.001" />
<path fill="none" stroke="#000000" stroke-width="0.700" d="M165.554 243.281h0.001" />
<path fill="none" stroke="#000000" stroke-width="0.700" d="M166.637 241.386h0.001" />
<path fill="none" stroke="#000000" stroke-width="0.700" d="M167.551 243.153h0.001" />
<path fill="none" stroke="#000000" stroke-width="0.700" d="M168.533 243.784h0.001" />
<path fill="none" stroke="#000000" stroke-width="0.700" d="M169.544 242.843h0.001" />
<path fill="none" stroke="#000000" stroke-width="0.700" d="M170.540 243.728h0.001" />
<path fill="none" stroke="#000000" stroke-width="0.700" d="M171.532 242.766h0.001" />
<path fill="none" stroke="#000000" stroke-width="0.700" d="M172.523 242.536h0.001" />
<path fill="none" stroke="#000000" stroke-width="0.700" d="M173.469 240.627h0.001" />
<path fill="none" stroke="#000000" stroke-width="0.700" d="M174.510 242.303h0.001" />
<path fill="none" stroke="#000000" stroke-width="0.700" d="M175.442 240.553h0.001" />
<path fill="none" stroke="#000000" stroke-width="0.700" d="M176.416 240.104h0.001" />
<path fill="none" stroke="#000000" stroke-width="0.700" d="M177.547 243.129h0.001" />
<path fill="none" stroke="#000000" stroke-width="0.700" d="M178.457 241.189h0.001" />
<path fill="none" stroke="#000000" stroke-width="0.700" d="M179.428 240.582h0.001" />
<path fill="none" stroke="#000000" stroke-width="0.700" d="M180.530 242.473h0.001" />
<path fill="none" stroke="#000000" stroke-width="0.700" d="M181.523 242.204h0.001" />
<path fill="none" stroke="#000000" stroke-width="0.700" d="M182.585 243.219h0.001" />
<path fill="none" stroke="#000000" stroke-width="0.700" d="M183.476 241.037h0.001" />
<path fill="none" stroke="#000000" stroke-width="0.700" d="M184.503 241.339h0.001" />
<path fill="none" stroke="#000000" stroke-width="0.700" d="M185.536 241.760h0.001" />
<path fill="none" stroke="#000000" stroke-width="0.700" d="M186.578 242.369h0.001" />
<path fill="none" stroke="#000000" stroke-width="0.700" d="M187.466 239.598h0.001" />
<path fill="none" stroke="#000000" stroke-width="0.700" d="M188.553 241.158h0.001" />
<path fill="none" stroke="#000000" stroke-width="0.700" d="M189.630 242.863h0.001" />
<path fill="none" stroke="#000000" stroke-width="0.700" d="M190.571 240.305h0.001" />
<path fill="none" stroke="#000000" stroke-width="0.700" d="M191.613 240.906h0.001" />
<path fill="none" stroke="#000000" stroke-width="0.700" d="M192.652 241.917h0.001" />
<path fill="none" stroke="#000000" stroke-width="0.700" d="M193.676 241.413h0.001" />
<path fill="none" stroke="#000000" stroke-width="0.700" d="M194.701 241.886h0.001" />
<path fill="none" stroke="#000000" stroke-width="0.700" d="M195.798 239.940h0.001" />
<path fill="none" stroke="#000000" stroke-width="0.700" d="M196.754 242.391h0.001" />
<path fill="none" stroke="#000000" stroke-width="0.700" d="M197.965 241.262h0.001" />
<path fill="none" stroke="#000000" stroke-width="0.700" d="M199.170 240.637h0.001" />
<path fill="none" stroke="#000000" stroke-width="0.700" d="M199.756 243.374h0.001" />
<path fill="none" stroke="#000000" stroke-width="0.700" d="M201.250 241.428h0.001" />
<path fill="none" stroke="#000000" stroke-width="0.700" d="M201.975 242.929h0.001" />
<path fill="none" stroke="#000000" stroke-width="0.700" d="M203.318 242.031h0.001" />
<path fill="none" stroke="#000000" stroke-width="0.700" d="M204.740 241.078h0.001" />
<path fill="none" stroke="#000000" stroke-width="0.700" d="M204.895 244.009h0.001" />
<path fill="none" stroke="#000000" stroke-width="0.700" d="M206.010 243.962h0.001" />
<path fill="none" stroke="#000000" stroke-width="0.700" d="M206.528 245.491h0.001" />
<path fill="none" stroke="#000000" stroke-width="0.700" d="M208.877 242.438h0.001" />
<path fill="none" stroke="#000000" stroke-width="0.700" d="M209.479 243.766h0.001" />
<path fill="none" stroke="#000000" stroke-width="0.700" d="M209.461 246.366h0.001" />
<path fill="none" stroke="#000000" stroke-width="0.700" d="M211.700 244.026h0.001" />
<path fill="none" stroke="#000000" stroke-width="0.700" d="M211.491 246.850h0.001" />
<path fill="none" stroke="#000000" stroke-width="0.700" d="M212.795 246.561h0.001" />
<path fill="none" stroke="#000000" stroke-width="0.700" d="M212.969 248.425h0.001" />
<path fill="none" stroke="#000000" stroke-width="0.700" d="M215.468 246.078h0.001" />
<path fill="none" stroke="#000000" stroke-width="0.700" d="M215.737 247.814h0.001" />
<path fill="none" stroke="#000000" stroke-width="1.000" d="M120.030 237.590C121.760 240.470 146.550 237.600 156.920 242.210C165.750 246.130 185.520 242.620 196.690 243.370C205.340 243.950 214.560 249.710 214.560 249.710" />
<path fill="none" stroke="#000000" stroke-width="1.000" d="M14.620 1.430C25.140 7.780 39.090 6.150 67.390 9.050" />
<path fill="none" stroke="#000000" stroke-width="1.000" d="M89.510 239.320C89.510 239.320 88.830 219.890 65.900 209.950C14.100 187.500 19.850 185.190 16.400 168.490C12.950 151.790 32.500 152.350 39.400 151.770C46.300 151.190 42.870 139.680 42.300 136.220C41.730 132.770 38.240 100.510 37.100 94.750C32.750 72.720 40.320 56.630 11.740 59.030" />
<path fill="none" stroke="#000000" stroke-width="1.000" d="M67.390 9.050C95.570 11.920 91.710 2.150 57.260 137.370" />
<path fill="none" stroke="#000000" stroke-width="1.000" d="M57.260 137.370C54.000 150.230 78.550 139.660 92.390 139.960" />
<path fill="none" stroke="#000000" stroke-width="1.000" d="M92.390 139.960C118.910 140.550 98.420 164.470 103.320 218.580C103.900 224.920 120.030 237.590 120.030 237.590" />
<path fill="#000000" stroke="none" d="M45.132 156.199C45.180 156.727 45.016 157.253 44.677 157.660C44.337 158.068 43.850 158.324 43.321 158.372C42.793 158.420 42.267 158.256 41.860 157.917C41.452 157.577 41.196 157.090 41.148 156.561C41.100 156.033 41.264 155.507 41.603 155.100C41.943 154.692 42.430 154.436 42.959 154.388C43.487 154.340 44.013 154.504 44.420 154.843C44.828 155.183 45.084 155.670 45.132 156.199Z" />
<path fill="none" stroke="#000000" stroke-width="2.835" stroke-linecap="butt" stroke-dasharray="3.000,3.000" stroke-dashoffset="0.000" d="M102.820 106.000L67.660 99.650" />
<path fill="none" stroke="#ffffd8" stroke-width="1.000" stroke-linecap="butt" d="M102.820 106.000L67.660 99.650" />
<path fill="none" stroke="#000000" stroke-width="2.835" stroke-linecap="butt" stroke-dasharray="3.000,3.000" stroke-dashoffset="0.000" d="M37.100 94.750L5.800 91.040" />
<path fill="none" stroke="#ffffd8" stroke-width="1.000" stroke-linecap="butt" d="M37.100 94.750L5.800 91.040" />
<path fill="#000000" stroke="none" d="M50.320 156.066C50.326 156.596 50.122 157.107 49.751 157.487C49.381 157.866 48.875 158.083 48.344 158.090C47.814 158.096 47.303 157.892 46.923 157.521C46.544 157.151 46.327 156.645 46.320 156.114C46.314 155.584 46.518 155.073 46.889 154.693C47.259 154.314 47.765 154.097 48.296 154.090C48.826 154.084 49.337 154.288 49.717 154.659C50.096 155.029 50.313 155.535 50.320 156.066Z" />
<path fill="none" stroke="#935602" stroke-width="0.700" stroke-linecap="butt" d="M46.590 152.340C60.550 145.670 84.610 155.800 85.190 158.390C89.010 175.560 84.750 209.030 108.510 241.050" />
<path fill="#000000" stroke="none" d="M85.124 160.389C84.594 160.371 84.092 160.144 83.730 159.757C83.367 159.369 83.174 158.854 83.191 158.324C83.209 157.794 83.436 157.292 83.823 156.930C84.211 156.567 84.726 156.374 85.256 156.391C85.786 156.409 86.288 156.636 86.650 157.024C87.013 157.411 87.206 157.926 87.189 158.456C87.171 158.986 86.944 159.488 86.556 159.850C86.169 160.213 85.654 160.406 85.124 160.389Z" />
<path fill="#000000" stroke="none" d="M113.634 250.249C113.104 250.231 112.602 250.004 112.240 249.617C111.877 249.229 111.684 248.714 111.701 248.184C111.719 247.654 111.946 247.152 112.334 246.790C112.721 246.427 113.236 246.234 113.766 246.251C114.296 246.269 114.798 246.496 115.160 246.883C115.523 247.271 115.716 247.786 115.699 248.316C115.681 248.846 115.454 249.348 115.067 249.710C114.679 250.073 114.164 250.266 113.634 250.249Z" />
<path fill="#000000" stroke="none" d="M116.224 245.349C115.694 245.331 115.192 245.104 114.830 244.716C114.467 244.329 114.274 243.814 114.291 243.284C114.309 242.754 114.536 242.252 114.924 241.890C115.311 241.527 115.826 241.334 116.356 241.351C116.886 241.369 117.388 241.596 117.750 241.983C118.113 242.371 118.306 242.886 118.289 243.416C118.271 243.946 118.044 244.448 117.656 244.810C117.269 245.173 116.754 245.366 116.224 245.349Z" />
<path fill="none" stroke="#935602" stroke-width="0.700" stroke-linecap="butt" d="M113.700 248.250C113.700 248.250 101.310 235.860 116.290 243.350" />
<path fill="none" stroke="#000000" stroke-width="0.500" stroke-linecap="butt" d="M114.850 233.560L110.240 239.890L114.270 241.050L113.120 246.810L108.510 248.540L116.580 252.570L124.070 252.570" />
<path fill="none" stroke="#000000" stroke-width="0.500" stroke-linecap="butt" d="M124.070 252.570L126.950 249.110L129.830 250.840L135.600 245.660L135.020 239.320" />
<path fill="none" stroke="#000000" stroke-width="0.500" stroke-linecap="butt" d="M124.070 252.570L122.050 245.080L112.840 250.550" />
<path fill="none" stroke="#000000" stroke-width="0.500" stroke-linecap="butt" d="M122.050 245.080L122.910 239.320" />
<path fill="none" stroke="#000000" stroke-width="0.500" stroke-linecap="butt" d="M135.600 245.660L122.910 239.320" />
</g>
<g id="X_aaaaaab_Exports/G4_coupe.svg">
<path fill="none" stroke="#c60071" stroke-width="0.350" stroke-linecap="butt" d="M60.390 8.050L60.643 5.563" />
<text font-family="cmss10" font-size="5.978" fill="#c60071" stroke="none" transform="matrix(1.000 0.000 -0.000 -1.000 56.658 0.811)">&#x2d;&#x32;&#x33;</text>
<text font-family="cmss10" font-size="7.970" fill="#000000" stroke="none" transform="matrix(1.000 0.000 -0.000 -1.000 34.529 221.743)">&#x50;&#x31;&#x30;</text>
<text font-family="cmss10" font-size="7.970" fill="#000000" stroke="none" transform="matrix(1.000 0.000 -0.000 -1.000 0.589 119.803)">&#x50;&#x31;&#x35;</text>
</g>
<clipPath id="clip_viewBox">
<path d="M-277.930 -516.078L138.494 -516.078L138.494 51.713L-277.930 51.713z" />
</clipPath>
</defs>
<g transform="scale(1,-1)" fill="#000000" stroke="#000000" stroke-linecap="round" stroke-linejoin="round" stroke-miterlimit="10" fill-rule="evenodd" clip-rule="evenodd" clip-path="url(#clip_viewBox)">
<rect x="-277.930" y="-516.078" width="416.424" height="567.791" stroke="none" fill="#f4f4f4" />
<g fill="#ffffd8">
<use x="-245.584" y="-471.732" xlink:href="#I_aaaaaaa_Exports/G4_coupe.svg" />
</g>
<use x="-183.584" y="-385.732" xlink:href="#F_aaaaaaa_Exports/G4_coupe.svg" />
<use x="-245.584" y="-471.732" xlink:href="#E_aaaaaaa_Exports/G4_coupe.svg" />
<use x="-249.584" y="-487.732" xlink:href="#X_aaaaaaa_Exports/G4_coupe.svg" />
<g fill="#ffffd8">
<use x="-95.853" y="-228.633" xlink:href="#I_aaaaaab_Exports/G4_coupe.svg" />
</g>
<use x="-92.853" y="-225.633" xlink:href="#F_aaaaaab_Exports/G4_coupe.svg" />
<use x="-106.853" y="-229.633" xlink:href="#E_aaaaaab_Exports/G4_coupe.svg" />
<use x="-99.853" y="-228.633" xlink:href="#X_aaaaaab_Exports/G4_coupe.svg" />
</g>
</svg>
