999
Therion DXF export
0
SECTION
2
HEADER
9
$ACADVER
1
AC1006
9
$INSBASE
10
0.0
20
0.0
30
0.0
9
$EXTMIN
10
1265596.711
20
5071674.301
30
-41.674
9
$EXTMAX
10
1265603.510
20
5071685.012
30
0.000
0
ENDSEC
0
SECTION
2
TABLES
0
TABLE
2
LTYPE
70
1
0
LTYPE
2
CONTINUOUS
70
64
3
Solid line
72
65
73
0
40
0.000000
0
ENDTAB
0
TABLE
2
LAYER
70
6
0
LAYER
2
CENTERLINE
70
64
62
4
6
CONTINUOUS
0
LAYER
2
WALLS
70
64
62
7
6
CONTINUOUS
0
LAYER
2
SURFACE
70
64
62
3
6
CONTINUOUS
0
LAYER
2
SURFACE_CENTERLINE
70
64
62
8
6
CONTINUOUS
0
LAYER
2
BBOX
70
64
62
1
6
CONTINUOUS
0
ENDTAB
0
TABLE
2
STYLE
70
0
0
ENDTAB
0
ENDSEC
0
SECTION
2
BLOCKS
0
ENDSEC
0
SECTION
2
ENTITIES
0
LINE
8
CENTERLINE
10
1265602.237
20
5071679.123
30
0.000
11
1265601.868
21
5071678.025
31
-0.938
0
LINE
8
CENTERLINE
10
1265601.868
20
5071678.025
30
-0.938
11
1265600.704
21
5071677.480
31
-9.148
0
LINE
8
CENTERLINE
10
1265600.704
20
5071677.480
30
-9.148
11
1265601.773
21
5071674.301
31
-7.840
0
LINE
8
CENTERLINE
10
1265601.773
20
5071674.301
30
-7.840
11
1265601.424
21
5071674.720
31
-14.468
0
LINE
8
CENTERLINE
10
1265601.424
20
5071674.720
30
-14.468
11
1265603.510
21
5071675.087
31
-23.153
0
LINE
8
CENTERLINE
10
1265603.510
20
5071675.087
30
-23.153
11
1265602.933
21
5071678.994
31
-24.953
0
LINE
8
CENTERLINE
10
1265602.933
20
5071678.994
30
-24.953
11
1265601.908
21
5071678.719
31
-32.226
0
LINE
8
CENTERLINE
10
1265601.908
20
5071678.719
30
-32.226
11
1265600.159
21
5071680.983
31
-32.211
0
LINE
8
CENTERLINE
10
1265600.159
20
5071680.983
30
-32.211
11
1265599.374
21
5071680.893
31
-37.260
0
LINE
8
CENTERLINE
10
1265599.374
20
5071680.893
30
-37.260
11
1265598.581
21
5071682.837
31
-37.241
0
LINE
8
CENTERLINE
10
1265598.581
20
5071682.837
30
-37.241
11
1265596.711
21
5071685.012
31
-41.674
0
LINE
8
SPLAY_SHOTS
10
1265601.868
20
5071678.025
30
-0.938
11
1265600.949
21
5071680.406
31
-6.079
0
LINE
8
SPLAY_SHOTS
10
1265601.868
20
5071678.025
30
-0.938
11
1265600.866
21
5071678.281
31
-9.485
0
LINE
8
SPLAY_SHOTS
10
1265601.868
20
5071678.025
30
-0.938
11
1265600.955
21
5071675.596
31
-9.754
0
LINE
8
SPLAY_SHOTS
10
1265601.868
20
5071678.025
30
-0.938
11
1265602.035
21
5071675.748
31
-4.605
0
LINE
8
SPLAY_SHOTS
10
1265601.868
20
5071678.025
30
-0.938
11
1265602.322
21
5071675.832
31
-2.601
0
LINE
8
SPLAY_SHOTS
10
1265601.868
20
5071678.025
30
-0.938
11
1265601.796
21
5071677.361
31
-0.993
0
LINE
8
SPLAY_SHOTS
10
1265601.868
20
5071678.025
30
-0.938
11
1265602.052
21
5071678.733
31
-0.732
0
LINE
8
SPLAY_SHOTS
10
1265601.868
20
5071678.025
30
-0.938
11
1265602.434
21
5071678.352
31
-0.715
0
LINE
8
SPLAY_SHOTS
10
1265601.868
20
5071678.025
30
-0.938
11
1265602.917
21
5071678.084
31
-0.646
0
LINE
8
SPLAY_SHOTS
10
1265601.868
20
5071678.025
30
-0.938
11
1265602.640
21
5071677.553
31
-0.773
0
LINE
8
SPLAY_SHOTS
10
1265601.868
20
5071678.025
30
-0.938
11
1265602.444
21
5071676.858
31
-0.718
0
LINE
8
SPLAY_SHOTS
10
1265600.704
20
5071677.480
30
-9.148
11
1265599.528
21
5071669.617
31
-7.400
0
LINE
8
SPLAY_SHOTS
10
1265600.704
20
5071677.480
30
-9.148
11
1265600.415
21
5071677.521
31
-9.077
0
LINE
8
SPLAY_SHOTS
10
1265600.704
20
5071677.480
30
-9.148
11
1265600.849
21
5071677.581
31
-9.116
0
LINE
8
SPLAY_SHOTS
10
1265600.704
20
5071677.480
30
-9.148
11
1265600.748
21
5071678.205
31
-8.864
0
LINE
8
SPLAY_SHOTS
10
1265600.704
20
5071677.480
30
-9.148
11
1265600.234
21
5071678.303
31
-8.609
0
LINE
8
SPLAY_SHOTS
10
1265600.704
20
5071677.480
30
-9.148
11
1265600.073
21
5071680.171
31
-7.906
0
LINE
8
SPLAY_SHOTS
10
1265601.773
20
5071674.301
30
-7.840
11
1265602.205
21
5071673.140
31
-7.413
0
LINE
8
SPLAY_SHOTS
10
1265601.773
20
5071674.301
30
-7.840
11
1265601.807
21
5071673.203
31
-7.622
0
LINE
8
SPLAY_SHOTS
10
1265601.773
20
5071674.301
30
-7.840
11
1265601.619
21
5071674.192
31
-7.819
0
LINE
8
SPLAY_SHOTS
10
1265601.773
20
5071674.301
30
-7.840
11
1265601.945
21
5071674.379
31
-7.857
0
LINE
8
SPLAY_SHOTS
10
1265601.773
20
5071674.301
30
-7.840
11
1265601.212
21
5071675.725
31
-9.570
0
LINE
8
SPLAY_SHOTS
10
1265601.773
20
5071674.301
30
-7.840
11
1265601.731
21
5071674.469
31
-7.959
0
LINE
8
SPLAY_SHOTS
10
1265601.773
20
5071674.301
30
-7.840
11
1265600.608
21
5071679.931
31
-7.001
0
LINE
8
SPLAY_SHOTS
10
1265601.773
20
5071674.301
30
-7.840
11
1265601.234
21
5071679.267
31
-3.436
0
LINE
8
SPLAY_SHOTS
10
1265601.773
20
5071674.301
30
-7.840
11
1265600.876
21
5071680.236
31
-4.499
0
LINE
8
SPLAY_SHOTS
10
1265601.773
20
5071674.301
30
-7.840
11
1265602.508
21
5071675.600
31
-3.047
0
LINE
8
SPLAY_SHOTS
10
1265601.773
20
5071674.301
30
-7.840
11
1265603.189
21
5071672.488
31
-3.165
0
LINE
8
SPLAY_SHOTS
10
1265601.773
20
5071674.301
30
-7.840
11
1265603.378
21
5071670.268
31
-3.329
0
LINE
8
SPLAY_SHOTS
10
1265601.773
20
5071674.301
30
-7.840
11
1265603.229
21
5071670.321
31
-5.056
0
LINE
8
SPLAY_SHOTS
10
1265601.773
20
5071674.301
30
-7.840
11
1265602.809
21
5071670.114
31
-7.591
0
LINE
8
SPLAY_SHOTS
10
1265601.773
20
5071674.301
30
-7.840
11
1265603.446
21
5071668.791
31
-6.265
0
LINE
8
SPLAY_SHOTS
10
1265601.424
20
5071674.720
30
-14.468
11
1265601.789
21
5071674.189
31
-6.473
0
LINE
8
SPLAY_SHOTS
10
1265601.424
20
5071674.720
30
-14.468
11
1265601.605
21
5071675.785
31
-9.863
0
LINE
8
SPLAY_SHOTS
10
1265601.424
20
5071674.720
30
-14.468
11
1265601.426
21
5071674.740
31
-14.269
0
LINE
8
SPLAY_SHOTS
10
1265601.424
20
5071674.720
30
-14.468
11
1265602.076
21
5071674.157
31
-10.040
0
LINE
8
SPLAY_SHOTS
10
1265601.424
20
5071674.720
30
-14.468
11
1265604.254
21
5071673.541
31
-22.288
0
LINE
8
SPLAY_SHOTS
10
1265601.424
20
5071674.720
30
-14.468
11
1265603.492
21
5071675.546
31
-23.888
0
LINE
8
SPLAY_SHOTS
10
1265601.424
20
5071674.720
30
-14.468
11
1265603.063
21
5071677.907
31
-23.567
0
LINE
8
SPLAY_SHOTS
10
1265601.424
20
5071674.720
30
-14.468
11
1265602.144
21
5071678.492
31
-21.599
0
LINE
8
SPLAY_SHOTS
10
1265601.424
20
5071674.720
30
-14.468
11
1265602.744
21
5071672.679
31
-14.476
0
LINE
8
SPLAY_SHOTS
10
1265601.424
20
5071674.720
30
-14.468
11
1265602.464
21
5071673.654
31
-14.392
0
LINE
8
SPLAY_SHOTS
10
1265601.424
20
5071674.720
30
-14.468
11
1265602.423
21
5071674.352
31
-14.282
0
LINE
8
SPLAY_SHOTS
10
1265601.424
20
5071674.720
30
-14.468
11
1265601.355
21
5071674.896
31
-14.479
0
LINE
8
SPLAY_SHOTS
10
1265601.424
20
5071674.720
30
-14.468
11
1265599.886
21
5071680.464
31
-14.988
0
LINE
8
SPLAY_SHOTS
10
1265601.424
20
5071674.720
30
-14.468
11
1265600.893
21
5071678.193
31
-14.974
0
LINE
8
SPLAY_SHOTS
10
1265601.424
20
5071674.720
30
-14.468
11
1265601.872
21
5071675.649
31
-14.598
0
LINE
8
SPLAY_SHOTS
10
1265601.424
20
5071674.720
30
-14.468
11
1265602.246
21
5071674.974
31
-14.447
0
LINE
8
SPLAY_SHOTS
10
1265603.510
20
5071675.087
30
-23.153
11
1265603.525
21
5071673.841
31
-22.907
0
LINE
8
SPLAY_SHOTS
10
1265603.510
20
5071675.087
30
-23.153
11
1265603.669
21
5071673.540
31
-22.699
0
LINE
8
SPLAY_SHOTS
10
1265603.510
20
5071675.087
30
-23.153
11
1265604.523
21
5071673.756
31
-22.606
0
LINE
8
SPLAY_SHOTS
10
1265603.510
20
5071675.087
30
-23.153
11
1265602.761
21
5071675.129
31
-23.187
0
LINE
8
SPLAY_SHOTS
10
1265603.510
20
5071675.087
30
-23.153
11
1265602.789
21
5071676.000
31
-23.405
0
LINE
8
SPLAY_SHOTS
10
1265603.510
20
5071675.087
30
-23.153
11
1265602.911
21
5071676.546
31
-23.672
0
LINE
8
SPLAY_SHOTS
10
1265603.510
20
5071675.087
30
-23.153
11
1265601.631
21
5071680.672
31
-25.113
0
LINE
8
SPLAY_SHOTS
10
1265603.510
20
5071675.087
30
-23.153
11
1265602.664
21
5071678.583
31
-23.885
0
LINE
8
SPLAY_SHOTS
10
1265603.510
20
5071675.087
30
-23.153
11
1265603.325
21
5071676.573
31
-23.345
0
LINE
8
SPLAY_SHOTS
10
1265603.510
20
5071675.087
30
-23.153
11
1265603.694
21
5071675.875
31
-23.187
0
LINE
8
SPLAY_SHOTS
10
1265603.510
20
5071675.087
30
-23.153
11
1265604.010
21
5071675.430
31
-23.027
0
LINE
8
SPLAY_SHOTS
10
1265602.933
20
5071678.994
30
-24.953
11
1265600.972
21
5071676.430
31
-18.618
0
LINE
8
SPLAY_SHOTS
10
1265602.933
20
5071678.994
30
-24.953
11
1265602.441
21
5071676.235
31
-20.621
0
LINE
8
SPLAY_SHOTS
10
1265602.933
20
5071678.994
30
-24.953
11
1265603.369
21
5071678.064
31
-24.532
0
LINE
8
SPLAY_SHOTS
10
1265602.933
20
5071678.994
30
-24.953
11
1265603.590
21
5071673.861
31
-22.540
0
LINE
8
SPLAY_SHOTS
10
1265602.933
20
5071678.994
30
-24.953
11
1265602.716
21
5071676.900
31
-24.517
0
LINE
8
SPLAY_SHOTS
10
1265602.933
20
5071678.994
30
-24.953
11
1265601.997
21
5071677.313
31
-24.798
0
LINE
8
SPLAY_SHOTS
10
1265602.933
20
5071678.994
30
-24.953
11
1265602.495
21
5071678.752
31
-24.951
0
LINE
8
SPLAY_SHOTS
10
1265602.933
20
5071678.994
30
-24.953
11
1265602.478
21
5071678.928
31
-24.939
0
LINE
8
SPLAY_SHOTS
10
1265602.933
20
5071678.994
30
-24.953
11
1265601.893
21
5071678.930
31
-33.560
0
LINE
8
SPLAY_SHOTS
10
1265602.933
20
5071678.994
30
-24.953
11
1265601.868
21
5071681.006
31
-29.326
0
LINE
8
SPLAY_SHOTS
10
1265602.933
20
5071678.994
30
-24.953
11
1265602.277
21
5071680.555
31
-26.435
0
LINE
8
SPLAY_SHOTS
10
1265602.933
20
5071678.994
30
-24.953
11
1265602.167
21
5071680.376
31
-25.430
0
LINE
8
SPLAY_SHOTS
10
1265602.933
20
5071678.994
30
-24.953
11
1265602.039
21
5071680.067
31
-25.043
0
LINE
8
SPLAY_SHOTS
10
1265601.908
20
5071678.719
30
-32.226
11
1265602.445
21
5071680.125
31
-26.490
0
LINE
8
SPLAY_SHOTS
10
1265601.908
20
5071678.719
30
-32.226
11
1265601.710
21
5071681.636
31
-27.925
0
LINE
8
SPLAY_SHOTS
10
1265601.908
20
5071678.719
30
-32.226
11
1265602.090
21
5071680.681
31
-27.630
0
LINE
8
SPLAY_SHOTS
10
1265601.908
20
5071678.719
30
-32.226
11
1265602.760
21
5071678.515
31
-27.497
0
LINE
8
SPLAY_SHOTS
10
1265601.908
20
5071678.719
30
-32.226
11
1265602.976
21
5071677.885
31
-27.903
0
LINE
8
SPLAY_SHOTS
10
1265601.908
20
5071678.719
30
-32.226
11
1265603.258
21
5071677.133
31
-27.879
0
LINE
8
SPLAY_SHOTS
10
1265600.159
20
5071680.983
30
-32.211
11
1265600.361
21
5071680.155
31
-33.774
0
LINE
8
SPLAY_SHOTS
10
1265600.159
20
5071680.983
30
-32.211
11
1265600.701
21
5071679.509
31
-33.590
0
LINE
8
SPLAY_SHOTS
10
1265600.159
20
5071680.983
30
-32.211
11
1265600.797
21
5071679.395
31
-32.391
0
LINE
8
SPLAY_SHOTS
10
1265600.159
20
5071680.983
30
-32.211
11
1265599.990
21
5071680.930
31
-35.496
0
LINE
8
SPLAY_SHOTS
10
1265600.159
20
5071680.983
30
-32.211
11
1265598.265
21
5071685.868
31
-32.147
0
LINE
8
SPLAY_SHOTS
10
1265599.374
20
5071680.893
30
-37.260
11
1265601.574
21
5071679.066
31
-37.264
0
LINE
8
SPLAY_SHOTS
10
1265599.374
20
5071680.893
30
-37.260
11
1265599.334
21
5071680.405
31
-37.254
0
LINE
8
SPLAY_SHOTS
10
1265599.374
20
5071680.893
30
-37.260
11
1265599.388
21
5071679.733
31
-40.102
0
LINE
8
SPLAY_SHOTS
10
1265599.374
20
5071680.893
30
-37.260
11
1265598.032
21
5071681.619
31
-43.031
0
LINE
8
SPLAY_SHOTS
10
1265599.374
20
5071680.893
30
-37.260
11
1265597.957
21
5071682.169
31
-40.787
0
LINE
8
SPLAY_SHOTS
10
1265599.374
20
5071680.893
30
-37.260
11
1265597.307
21
5071683.578
31
-40.744
0
LINE
8
SPLAY_SHOTS
10
1265599.374
20
5071680.893
30
-37.260
11
1265597.590
21
5071684.021
31
-38.977
0
LINE
8
SPLAY_SHOTS
10
1265599.374
20
5071680.893
30
-37.260
11
1265598.027
21
5071683.905
31
-37.323
0
LINE
8
SPLAY_SHOTS
10
1265599.374
20
5071680.893
30
-37.260
11
1265599.736
21
5071681.339
31
-36.417
0
LINE
8
SPLAY_SHOTS
10
1265598.581
20
5071682.837
30
-37.241
11
1265598.223
21
5071684.437
31
-35.121
0
LINE
8
SPLAY_SHOTS
10
1265598.581
20
5071682.837
30
-37.241
11
1265598.399
21
5071684.299
31
-33.804
0
LINE
8
SPLAY_SHOTS
10
1265598.581
20
5071682.837
30
-37.241
11
1265599.569
21
5071681.758
31
-32.764
0
LINE
8
SPLAY_SHOTS
10
1265598.581
20
5071682.837
30
-37.241
11
1265598.271
21
5071683.096
31
-37.168
0
LINE
8
SPLAY_SHOTS
10
1265598.581
20
5071682.837
30
-37.241
11
1265598.709
21
5071683.383
31
-37.242
0
LINE
8
SPLAY_SHOTS
10
1265598.581
20
5071682.837
30
-37.241
11
1265598.881
21
5071682.972
31
-37.224
0
LINE
8
SPLAY_SHOTS
10
1265598.581
20
5071682.837
30
-37.241
11
1265599.053
21
5071682.208
31
-36.849
0
LINE
8
SPLAY_SHOTS
10
1265598.581
20
5071682.837
30
-37.241
11
1265598.769
21
5071681.965
31
-36.769
0
LINE
8
SPLAY_SHOTS
10
1265598.581
20
5071682.837
30
-37.241
11
1265600.383
21
5071679.702
31
-34.302
0
LINE
8
SPLAY_SHOTS
10
1265598.581
20
5071682.837
30
-37.241
11
1265599.351
21
5071680.841
31
-37.215
0
LINE
8
SPLAY_SHOTS
10
1265598.581
20
5071682.837
30
-37.241
11
1265596.643
21
5071687.886
31
-36.558
0
LINE
8
SPLAY_SHOTS
10
1265598.581
20
5071682.837
30
-37.241
11
1265596.970
21
5071686.456
31
-37.630
0
LINE
8
SPLAY_SHOTS
10
1265598.581
20
5071682.837
30
-37.241
11
1265596.505
21
5071686.693
31
-39.055
0
LINE
8
SPLAY_SHOTS
10
1265598.581
20
5071682.837
30
-37.241
11
1265596.623
21
5071685.282
31
-41.505
0
LINE
8
SPLAY_SHOTS
10
1265598.581
20
5071682.837
30
-37.241
11
1265597.014
21
5071684.471
31
-41.553
0
LINE
8
BBOX
10
1265596.505
20
5071668.791
30
-43.031
11
1265604.523
21
5071668.791
31
-43.031
0
LINE
8
BBOX
10
1265596.505
20
5071668.791
30
-43.031
11
1265596.505
21
5071687.886
31
-43.031
0
LINE
8
BBOX
10
1265596.505
20
5071668.791
30
-43.031
11
1265596.505
21
5071668.791
31
0.000
0
LINE
8
BBOX
10
1265604.523
20
5071687.886
30
0.000
11
1265596.505
21
5071687.886
31
0.000
0
LINE
8
BBOX
10
1265604.523
20
5071687.886
30
0.000
11
1265604.523
21
5071668.791
31
0.000
0
LINE
8
BBOX
10
1265604.523
20
5071687.886
30
0.000
11
1265604.523
21
5071687.886
31
-43.031
0
LINE
8
BBOX
10
1265596.505
20
5071668.791
30
0.000
11
1265604.523
21
5071668.791
31
0.000
0
LINE
8
BBOX
10
1265596.505
20
5071668.791
30
0.000
11
1265596.505
21
5071687.886
31
0.000
0
LINE
8
BBOX
10
1265604.523
20
5071668.791
30
-43.031
11
1265604.523
21
5071668.791
31
0.000
0
LINE
8
BBOX
10
1265604.523
20
5071687.886
30
-43.031
11
1265596.505
21
5071687.886
31
-43.031
0
LINE
8
BBOX
10
1265604.523
20
5071687.886
30
-43.031
11
1265604.523
21
5071668.791
31
-43.031
0
LINE
8
BBOX
10
1265596.505
20
5071687.886
30
0.000
11
1265596.505
21
5071687.886
31
-43.031
0
ENDSEC
0
EOF
