<?xml version="1.0" encoding="utf-8" standalone="no"?>
<!-- Generated by Therion 6.1.2 (2022-07-11) -->
<!-- Author: Martin Kern -->
<!DOCTYPE svg PUBLIC "-//W3C//DTD SVG 1.1//EN" "http://www.w3.org/Graphics/SVG/1.1/DTD/svg11.dtd">
<svg width="4.610cm" height="8.631cm" viewBox="-42.134 -57.070 130.668 244.663" xmlns="http://www.w3.org/2000/svg" xmlns:xlink="http://www.w3.org/1999/xlink">
<defs>
<g id="F_aaaaaaa_Exports/G4_plan.svg">
<g>
<clipPath id="clip_1_Exports/G4_plan.svg">
  <path d="M-0.770 47.260C-0.770 47.260 -0.770 47.260 -0.770 47.260C-0.770 47.260 -4.490 52.300 -2.810 63.220C-1.130 74.140 -1.130 87.940 1.390 80.140C3.910 72.340 12.070 47.860 12.430 45.940C12.790 44.020 14.830 33.220 14.950 32.620C15.070 32.020 19.990 21.100 20.110 19.180C20.230 17.260 44.110 -14.550 40.270 -8.660C40.270 -8.660 40.270 -8.660 40.270 -8.660C40.270 -8.660 39.070 -12.150 36.190 -8.540C33.310 -4.940 27.670 -0.980 25.030 0.100C22.390 1.180 16.150 -0.020 14.710 4.780C13.270 9.580 5.220 18.220 4.990 22.300C4.750 26.380 0.430 38.860 0.310 40.660C0.170 42.710 -0.530 46.540 -0.770 47.260" />
</clipPath>
<g clip-path="url(#clip_1_Exports/G4_plan.svg)">
<path fill="none" stroke="#000000" stroke-width="0.350" d="M0.310 33.820L1.015 35.692" />
<path fill="none" stroke="#000000" stroke-width="0.350" d="M2.796 33.037L3.312 34.970" />
<path fill="none" stroke="#000000" stroke-width="0.350" d="M5.343 32.482L5.664 34.456" />
<path fill="none" stroke="#000000" stroke-width="0.350" d="M7.939 32.273L7.916 34.273" />
<path fill="none" stroke="#000000" stroke-width="0.350" d="M10.467 32.813L9.614 34.622" />
<path fill="none" stroke="#000000" stroke-width="0.350" d="M12.117 34.782L10.359 35.737" />
<path fill="none" stroke="#000000" stroke-width="0.350" d="M13.201 37.152L11.334 37.869" />
<path fill="none" stroke="#000000" stroke-width="0.350" d="M13.981 39.638L12.038 40.109" />
<path fill="none" stroke="#000000" stroke-width="0.350" d="M14.230 42.220L12.242 41.999" />
<path fill="none" stroke="#000000" stroke-width="0.500" d="M0.310 33.820C0.310 33.820 7.760 30.990 10.750 32.980C12.190 33.940 14.590 39.820 14.230 42.220" />
<path fill="none" stroke="#000000" stroke-width="0.350" d="M18.550 0.340L16.782 1.275" />
<path fill="none" stroke="#000000" stroke-width="0.350" d="M19.740 2.804L17.916 3.625" />
<path fill="none" stroke="#000000" stroke-width="0.350" d="M20.807 5.324L18.947 6.058" />
<path fill="none" stroke="#000000" stroke-width="0.350" d="M21.742 7.895L19.844 8.525" />
<path fill="none" stroke="#000000" stroke-width="0.350" d="M22.505 10.523L20.565 11.011" />
<path fill="none" stroke="#000000" stroke-width="0.350" d="M23.016 13.210L21.035 13.482" />
<path fill="none" stroke="#000000" stroke-width="0.350" d="M23.110 15.940L21.113 15.838" />
<path fill="none" stroke="#000000" stroke-width="0.500" d="M18.550 0.340C18.550 0.340 23.590 9.820 23.110 15.940" />
</g>
</g>
</g>
<g id="G_aaaaaaa_Exports/G4_plan.svg">
</g>
<g id="B_aaaaaaa_Exports/G4_plan.svg">
<path fill="none" stroke="inherit" stroke-width="0.350" d="M3.230 58.260C3.470 57.540 4.170 53.710 4.310 51.660C4.430 49.860 8.750 37.380 8.990 33.300C9.220 29.220 17.270 20.580 18.710 15.780C20.150 10.980 26.390 12.180 29.030 11.100C31.670 10.020 37.310 6.060 40.190 2.460C43.070 -1.150 44.270 2.340 44.270 2.340" />
<path fill="none" stroke="inherit" stroke-width="0.350" d="M44.270 2.340C48.110 -3.550 24.230 28.260 24.110 30.180C23.990 32.100 19.070 43.020 18.950 43.620C18.830 44.220 16.790 55.020 16.430 56.940C16.070 58.860 7.910 83.340 5.390 91.140C2.870 98.940 2.870 85.140 1.190 74.220C-0.490 63.300 3.230 58.260 3.230 58.260" />
</g>
<g id="I_aaaaaaa_Exports/G4_plan.svg">
<path fill="inherit" stroke="none" d="M3.230 58.260C3.230 58.260 3.230 58.260 3.230 58.260C3.230 58.260 -0.490 63.300 1.190 74.220C2.870 85.140 2.870 98.940 5.390 91.140C7.910 83.340 16.070 58.860 16.430 56.940C16.790 55.020 18.830 44.220 18.950 43.620C19.070 43.020 23.990 32.100 24.110 30.180C24.230 28.260 48.110 -3.550 44.270 2.340C44.270 2.340 44.270 2.340 44.270 2.340C44.270 2.340 43.070 -1.150 40.190 2.460C37.310 6.060 31.670 10.020 29.030 11.100C26.390 12.180 20.150 10.980 18.710 15.780C17.270 20.580 9.220 29.220 8.990 33.300C8.750 37.380 4.430 49.860 4.310 51.660C4.170 53.710 3.470 57.540 3.230 58.260Z" />
</g>
<g id="E_aaaaaaa_Exports/G4_plan.svg">
<path fill="none" stroke="#000000" stroke-width="1.000" d="M44.270 2.340C48.110 -3.550 24.230 28.260 24.110 30.180C23.990 32.100 19.070 43.020 18.950 43.620C18.830 44.220 16.790 55.020 16.430 56.940C16.070 58.860 7.910 83.340 5.390 91.140C2.870 98.940 2.870 85.140 1.190 74.220C-0.490 63.300 3.230 58.260 3.230 58.260" />
<path fill="none" stroke="#000000" stroke-width="1.000" d="M3.230 58.260C3.470 57.540 4.170 53.710 4.310 51.660C4.430 49.860 8.750 37.380 8.990 33.300C9.220 29.220 17.270 20.580 18.710 15.780C20.150 10.980 26.390 12.180 29.030 11.100C31.670 10.020 37.310 6.060 40.190 2.460C43.070 -1.150 44.270 2.340 44.270 2.340" />
</g>
<g id="X_aaaaaaa_Exports/G4_plan.svg">
<text font-family="cmss10" font-size="5.978" fill="#000000" stroke="none" transform="matrix(1.000 0.000 -0.000 -1.000 0.565 38.184)">&#x52;&#x35;</text>
<text font-family="cmss10" font-size="5.978" fill="#000000" stroke="none" transform="matrix(1.000 0.000 -0.000 -1.000 20.005 0.624)">&#x52;&#x35;</text>
</g>
<g id="F_aaaaaab_Exports/G4_plan.svg">
<g>
<clipPath id="clip_2_Exports/G4_plan.svg">
  <path d="M-15.190 -32.450C-15.190 -32.450 -6.430 -58.010 9.290 -46.010C16.210 -40.730 12.530 -33.290 11.810 -30.170C11.090 -27.050 7.850 -22.490 7.370 -19.850C6.890 -17.210 8.450 -2.570 8.330 -1.010C8.210 0.550 5.330 6.190 5.210 7.990C5.090 9.790 -2.590 28.630 -2.230 20.110C-1.870 11.590 2.450 9.430 1.970 7.750C1.490 6.070 0.530 1.030 1.610 -0.770C2.690 -2.570 -1.510 -11.570 -1.270 -14.930C-1.030 -18.290 -7.390 -25.250 -9.430 -21.050C-11.470 -16.850 -18.430 17.350 -19.270 14.470C-20.110 11.590 -19.750 2.830 -19.390 0.910C-19.030 -1.010 -15.070 -31.490 -15.190 -32.450C-15.190 -32.450 -15.190 -32.450 -15.190 -32.450" />
</clipPath>
<g clip-path="url(#clip_2_Exports/G4_plan.svg)">
<path fill="none" stroke="#000000" stroke-width="0.350" d="M0.290 4.750L1.713 6.155" />
<path fill="none" stroke="#000000" stroke-width="0.350" d="M2.688 2.650L3.898 4.242" />
<path fill="none" stroke="#000000" stroke-width="0.350" d="M5.427 1.041L6.104 2.923" />
<path fill="none" stroke="#000000" stroke-width="0.350" d="M7.970 2.110L6.095 2.806" />
<path fill="none" stroke="#000000" stroke-width="0.500" d="M0.290 4.750C0.290 4.750 6.770 -1.850 7.970 2.110" />
</g>
</g>
</g>
<g id="G_aaaaaab_Exports/G4_plan.svg">
</g>
<g id="B_aaaaaab_Exports/G4_plan.svg">
<path fill="none" stroke="inherit" stroke-width="0.350" d="M4.810 17.550C4.810 17.550 13.570 -8.010 29.290 3.990C36.210 9.270 32.530 16.710 31.810 19.830C31.090 22.950 27.850 27.510 27.370 30.150C26.890 32.790 28.450 47.430 28.330 48.990C28.210 50.550 25.330 56.190 25.210 57.990C25.090 59.790 17.410 78.630 17.770 70.110C18.130 61.590 22.450 59.430 21.970 57.750C21.490 56.070 20.530 51.030 21.610 49.230C22.690 47.430 18.490 38.430 18.730 35.070C18.970 31.710 12.610 24.750 10.570 28.950C8.530 33.150 1.570 67.350 0.730 64.470C-0.110 61.590 0.250 52.830 0.610 50.910C0.970 48.990 4.930 18.510 4.810 17.550" />
</g>
<g id="I_aaaaaab_Exports/G4_plan.svg">
<path fill="inherit" stroke="none" d="M4.810 17.550C4.810 17.550 13.570 -8.010 29.290 3.990C36.210 9.270 32.530 16.710 31.810 19.830C31.090 22.950 27.850 27.510 27.370 30.150C26.890 32.790 28.450 47.430 28.330 48.990C28.210 50.550 25.330 56.190 25.210 57.990C25.090 59.790 17.410 78.630 17.770 70.110C18.130 61.590 22.450 59.430 21.970 57.750C21.490 56.070 20.530 51.030 21.610 49.230C22.690 47.430 18.490 38.430 18.730 35.070C18.970 31.710 12.610 24.750 10.570 28.950C8.530 33.150 1.570 67.350 0.730 64.470C-0.110 61.590 0.250 52.830 0.610 50.910C0.970 48.990 4.930 18.510 4.810 17.550C4.810 17.550 4.810 17.550 4.810 17.550Z" />
</g>
<g id="E_aaaaaab_Exports/G4_plan.svg">
<path fill="none" stroke="#000000" stroke-width="1.000" d="M5.810 17.550C5.810 17.550 14.570 -8.010 30.290 3.990C37.210 9.270 33.530 16.710 32.810 19.830C32.090 22.950 28.850 27.510 28.370 30.150C27.890 32.790 29.450 47.430 29.330 48.990C29.210 50.550 26.330 56.190 26.210 57.990C26.090 59.790 18.410 78.630 18.770 70.110C19.130 61.590 23.450 59.430 22.970 57.750C22.490 56.070 21.530 51.030 22.610 49.230C23.690 47.430 19.490 38.430 19.730 35.070C19.970 31.710 13.610 24.750 11.570 28.950C9.530 33.150 2.570 67.350 1.730 64.470C0.890 61.590 1.250 52.830 1.610 50.910C1.970 48.990 5.930 18.510 5.810 17.550" />
</g>
<g id="X_aaaaaab_Exports/G4_plan.svg">
</g>
<g id="F_aaaaaac_Exports/G4_plan.svg">
</g>
<g id="G_aaaaaac_Exports/G4_plan.svg">
</g>
<g id="B_aaaaaac_Exports/G4_plan.svg">
<path fill="none" stroke="inherit" stroke-width="0.350" d="M1.300 92.460C1.300 92.460 12.100 69.790 8.620 63.310C5.140 56.830 7.660 62.470 6.820 58.750C5.980 55.030 17.870 0.910 18.950 0.550C20.030 0.190 23.630 11.470 23.150 13.870C22.670 16.270 23.150 34.510 23.390 35.830C23.620 37.150 14.500 51.910 15.340 53.590C16.180 55.270 20.260 72.070 13.180 100.150C7.250 123.650 2.140 106.620 1.780 105.420C1.420 104.220 0.220 94.980 1.300 92.460" />
</g>
<g id="I_aaaaaac_Exports/G4_plan.svg">
<path fill="inherit" stroke="none" d="M1.300 92.460C1.300 92.460 1.300 92.460 1.300 92.460C0.220 94.980 1.420 104.220 1.780 105.420C2.140 106.620 7.250 123.650 13.180 100.150C20.260 72.070 16.180 55.270 15.340 53.590C14.500 51.910 23.620 37.150 23.390 35.830C23.150 34.510 22.670 16.270 23.150 13.870C23.630 11.470 20.030 0.190 18.950 0.550C17.870 0.910 5.980 55.030 6.820 58.750C7.660 62.470 5.140 56.830 8.620 63.310C12.100 69.790 1.300 92.460 1.300 92.460Z" />
</g>
<g id="E_aaaaaac_Exports/G4_plan.svg">
<path fill="none" stroke="#000000" stroke-width="1.000" d="M1.300 92.460C1.300 92.460 12.100 69.790 8.620 63.310C5.140 56.830 7.660 62.470 6.820 58.750C5.980 55.030 17.870 0.910 18.950 0.550C20.030 0.190 23.630 11.470 23.150 13.870C22.670 16.270 23.150 34.510 23.390 35.830C23.620 37.150 14.500 51.910 15.340 53.590C16.180 55.270 20.260 72.070 13.180 100.150C7.250 123.650 2.140 106.620 1.780 105.420C1.420 104.220 0.220 94.980 1.300 92.460" />
</g>
<g id="X_aaaaaac_Exports/G4_plan.svg">
</g>
<g id="F_aaaaaad_Exports/G4_plan.svg">
</g>
<g id="G_aaaaaad_Exports/G4_plan.svg">
</g>
<g id="B_aaaaaad_Exports/G4_plan.svg">
<path fill="none" stroke="inherit" stroke-width="0.350" d="M18.210 11.420C18.210 11.420 20.970 16.970 21.970 18.170C22.960 19.370 26.440 20.130 23.120 23.440C19.810 26.760 18.430 25.370 18.840 29.530C19.040 31.560 21.650 38.330 21.370 38.970" />
<path fill="none" stroke="inherit" stroke-width="0.350" d="M21.370 38.970C21.370 38.970 17.790 61.850 11.860 46.580C5.930 31.310 6.240 29.880 4.020 21.060C-1.350 -0.180 0.950 0.850 9.570 1.310C15.020 1.610 14.880 2.320 18.210 11.420" />
</g>
<g id="I_aaaaaad_Exports/G4_plan.svg">
<path fill="inherit" stroke="none" d="M17.210 10.420C17.210 10.420 19.970 15.970 20.970 17.170C21.960 18.370 25.440 19.130 22.120 22.440C18.810 25.760 17.430 24.370 17.840 28.530C18.040 30.560 20.650 37.330 20.370 37.970C20.370 37.970 20.370 37.970 20.370 37.970C20.370 37.970 16.790 60.850 10.860 45.580C4.930 30.310 5.240 28.880 3.020 20.060C-2.350 -1.180 -0.050 -0.150 8.570 0.310C14.020 0.610 13.880 1.320 17.210 10.420C17.210 10.420 17.210 10.420 17.210 10.420Z" />
</g>
<g id="E_aaaaaad_Exports/G4_plan.svg">
<path fill="none" stroke="#000000" stroke-width="1.000" d="M21.370 38.970C21.370 38.970 17.790 61.850 11.860 46.580C5.930 31.310 6.240 29.880 4.020 21.060C-1.350 -0.180 0.950 0.850 9.570 1.310C15.020 1.610 14.880 2.320 18.210 11.420" />
<path fill="none" stroke="#000000" stroke-width="1.000" d="M18.210 11.420C18.210 11.420 20.970 16.970 21.970 18.170C22.960 19.370 26.440 20.130 23.120 23.440C19.810 26.760 18.430 25.370 18.840 29.530C19.040 31.560 21.650 38.330 21.370 38.970" />
</g>
<g id="X_aaaaaad_Exports/G4_plan.svg">
</g>
<g id="F_aaaaaae_Exports/G4_plan.svg">
<g>
<clipPath id="clip_3_Exports/G4_plan.svg">
  <path d="M1.290 29.630C1.290 29.630 4.030 14.950 9.900 14.620C15.780 14.290 12.480 17.090 12.910 19.690C13.340 22.300 13.040 25.950 11.300 26.520C9.560 27.090 7.060 29.430 5.870 30.660C4.690 31.880 3.480 40.110 2.950 41.740C2.420 43.370 0.820 42.110 0.400 39.510C-0.030 36.900 0.840 31.970 1.290 29.630C1.290 29.630 1.290 29.630 1.290 29.630" />
</clipPath>
<g clip-path="url(#clip_3_Exports/G4_plan.svg)">
<path fill="none" stroke="#000000" stroke-width="0.350" d="M0.400 39.510L2.400 39.530" />
<path fill="none" stroke="#000000" stroke-width="0.350" d="M0.503 36.961L2.499 37.089" />
<path fill="none" stroke="#000000" stroke-width="0.350" d="M0.704 34.418L2.694 34.616" />
<path fill="none" stroke="#000000" stroke-width="0.350" d="M0.996 31.883L2.978 32.154" />
<path fill="none" stroke="#000000" stroke-width="0.350" d="M1.388 29.362L3.357 29.714" />
<path fill="none" stroke="#000000" stroke-width="0.350" d="M1.895 26.863L3.844 27.310" />
<path fill="none" stroke="#000000" stroke-width="0.350" d="M2.543 24.395L4.461 24.961" />
<path fill="none" stroke="#000000" stroke-width="0.350" d="M3.368 21.982L5.235 22.700" />
<path fill="none" stroke="#000000" stroke-width="0.350" d="M4.429 19.663L6.204 20.584" />
<path fill="none" stroke="#000000" stroke-width="0.350" d="M5.811 17.522L7.411 18.722" />
<path fill="none" stroke="#000000" stroke-width="0.350" d="M7.622 15.737L8.875 17.296" />
<path fill="none" stroke="#000000" stroke-width="0.350" d="M9.900 14.620L10.552 16.511" />
<path fill="none" stroke="#000000" stroke-width="0.500" d="M0.400 39.510C0.400 39.510 0.550 17.170 9.900 14.620" />
<path fill="none" stroke="#000000" stroke-width="0.350" d="M11.180 68.650C11.180 68.650 9.880 55.530 10.070 54.060C10.260 52.590 10.120 43.190 11.350 41.360C12.590 39.520 18.340 34.020 18.340 33.050C18.350 32.090 19.350 26.180 19.460 25.080C19.570 23.980 22.740 16.010 23.490 14.230C24.250 12.450 27.050 7.530 29.650 6.020C32.240 4.510 39.580 1.230 42.030 0.460" />
<path fill="none" stroke="#000000" stroke-width="0.350" d="M18.661 30.454L20.640 30.746" />
<path fill="none" stroke="#000000" stroke-width="0.350" d="M7.420 30.480L9.394 30.158" />
<path fill="none" stroke="#000000" stroke-width="0.350" d="M7.107 27.680L9.101 27.536" />
<path fill="none" stroke="#000000" stroke-width="0.350" d="M6.990 24.865L8.990 24.857" />
<path fill="none" stroke="#000000" stroke-width="0.350" d="M7.086 22.050L9.080 22.206" />
<path fill="none" stroke="#000000" stroke-width="0.350" d="M7.459 19.259L9.423 19.636" />
<path fill="none" stroke="#000000" stroke-width="0.350" d="M8.223 16.550L10.098 17.247" />
<path fill="none" stroke="#000000" stroke-width="0.350" d="M9.567 14.084L11.193 15.249" />
<path fill="none" stroke="#000000" stroke-width="0.350" d="M11.670 12.240L12.728 13.937" />
<path fill="none" stroke="#000000" stroke-width="0.500" d="M7.420 30.480C7.420 30.480 4.990 15.920 11.670 12.240" />
</g>
</g>
</g>
<g id="G_aaaaaae_Exports/G4_plan.svg">
</g>
<g id="B_aaaaaae_Exports/G4_plan.svg">
<path fill="none" stroke="inherit" stroke-width="0.350" d="M1.290 15.630C1.290 15.630 4.030 0.950 9.900 0.620C15.780 0.290 12.480 3.090 12.910 5.690C13.340 8.300 13.040 11.950 11.300 12.520C9.560 13.090 7.060 15.430 5.870 16.660C4.690 17.880 3.480 26.110 2.950 27.740C2.420 29.370 0.820 28.110 0.400 25.510C-0.030 22.900 0.840 17.970 1.290 15.630" />
</g>
<g id="I_aaaaaae_Exports/G4_plan.svg">
<path fill="inherit" stroke="none" d="M1.290 15.630C1.290 15.630 4.030 0.950 9.900 0.620C15.780 0.290 12.480 3.090 12.910 5.690C13.340 8.300 13.040 11.950 11.300 12.520C9.560 13.090 7.060 15.430 5.870 16.660C4.690 17.880 3.480 26.110 2.950 27.740C2.420 29.370 0.820 28.110 0.400 25.510C-0.030 22.900 0.840 17.970 1.290 15.630C1.290 15.630 1.290 15.630 1.290 15.630Z" />
</g>
<g id="E_aaaaaae_Exports/G4_plan.svg">
<path fill="none" stroke="#000000" stroke-width="1.000" d="M2.290 15.630C2.290 15.630 5.030 0.950 10.900 0.620C16.780 0.290 13.480 3.090 13.910 5.690C14.340 8.300 14.040 11.950 12.300 12.520C10.560 13.090 8.060 15.430 6.870 16.660C5.690 17.880 4.480 26.110 3.950 27.740C3.420 29.370 1.820 28.110 1.400 25.510C0.970 22.900 1.840 17.970 2.290 15.630" />
</g>
<g id="X_aaaaaae_Exports/G4_plan.svg">
</g>
<clipPath id="clip_viewBox">
<path d="M-42.134 -187.593L88.534 -187.593L88.534 57.070L-42.134 57.070z" />
</clipPath>
</defs>
<g transform="scale(1,-1)" fill="#000000" stroke="#000000" stroke-linecap="round" stroke-linejoin="round" stroke-miterlimit="10" fill-rule="evenodd" clip-rule="evenodd" clip-path="url(#clip_viewBox)">
<rect x="-42.134" y="-187.593" width="130.668" height="244.663" stroke="none" fill="#f4f4f4" />
<g fill="#ffffd8">
<use x="-0.787" y="-65.277" xlink:href="#I_aaaaaaa_Exports/G4_plan.svg" />
</g>
<use x="3.213" y="-54.277" xlink:href="#F_aaaaaaa_Exports/G4_plan.svg" />
<use x="-0.787" y="-65.277" xlink:href="#E_aaaaaaa_Exports/G4_plan.svg" />
<use x="-13.787" y="-62.277" xlink:href="#X_aaaaaaa_Exports/G4_plan.svg" />
<g fill="#ffffd8">
<use x="26.188" y="-120.206" xlink:href="#I_aaaaaab_Exports/G4_plan.svg" />
</g>
<use x="46.188" y="-70.206" xlink:href="#F_aaaaaab_Exports/G4_plan.svg" />
<use x="25.188" y="-120.206" xlink:href="#E_aaaaaab_Exports/G4_plan.svg" />
<g fill="#ffffd8">
<use x="22.908" y="-159.247" xlink:href="#I_aaaaaac_Exports/G4_plan.svg" />
</g>
<use x="22.908" y="-159.247" xlink:href="#E_aaaaaac_Exports/G4_plan.svg" />
<g fill="#ffffd8">
<use x="26.089" y="-93.224" xlink:href="#I_aaaaaad_Exports/G4_plan.svg" />
</g>
<use x="25.089" y="-94.224" xlink:href="#E_aaaaaad_Exports/G4_plan.svg" />
<g fill="#ffffd8">
<use x="39.479" y="-69.869" xlink:href="#I_aaaaaae_Exports/G4_plan.svg" />
</g>
<use x="39.479" y="-83.869" xlink:href="#F_aaaaaae_Exports/G4_plan.svg" />
<use x="38.479" y="-69.869" xlink:href="#E_aaaaaae_Exports/G4_plan.svg" />
</g>
</svg>
